PathFileType	4	(X/Y/Z)	TVC_12_BWA2_walk_RCNL2025.trc
DataRate	CameraRate	NumFrames	NumMarkers	Units	OrigDataRate	OrigDataStartFrame	OrigNumFrames
100	100	10	27	mm	100	386	440
Frame#	Time	R_Shoulder			L_Shoulder			C7			J_Notch			R_Elbow			L_Elbow			R_Wrist			L_Wrist			R_Asis			L_Asis			R_Psis			L_Psis			Sacral			Thoracic			Sternum			R_Thigh_Lateral			R_Knee_Lateral			R_Shank_Lateral			R_Ankle_Lateral			R_Heel			R_Toe			L_Thigh_Lateral			L_Knee_Lateral			L_Shank_Lateral			L_Ankle_Lateral			L_Heel			L_Toe		
		X1	Y1	Z1	X2	Y2	Z2	X3	Y3	Z3	X4	Y4	Z4	X5	Y5	Z5	X6	Y6	Z6	X7	Y7	Z7	X8	Y8	Z8	X9	Y9	Z9	X10	Y10	Z10	X11	Y11	Z11	X12	Y12	Z12	X13	Y13	Z13	X14	Y14	Z14	X15	Y15	Z15	X16	Y16	Z16	X17	Y17	Z17	X18	Y18	Z18	X19	Y19	Z19	X20	Y20	Z20	X21	Y21	Z21	X22	Y22	Z22	X23	Y23	Z23	X24	Y24	Z24	X25	Y25	Z25	X26	Y26	Z26	X27	Y27	Z27
386	3.85000000	1511.117065	1362.525391	-107.673019	1462.171143	1338.631836	-520.648376	1390.995850	1426.832153	-304.215271	1534.718506	1307.203491	-314.184845	1387.847046	1057.629150	-7.323328	1282.821411	1040.304688	-548.048462	1412.027466	808.730865	-43.862579	1320.565369	811.735962	-470.447128	1460.497070	924.320374	-108.614670	1439.382202	917.034241	-454.113159	1279.526733	958.276306	-204.974106	1267.555054	959.018982	-312.957703	1273.540894	958.647644	-258.965904	1290.611572	1172.959961	-282.869965	1614.420044	1114.349609	-319.356812	1460.813354	608.423645	-69.985794	1439.540894	471.339142	-111.214096	1281.562866	322.971680	-71.068810	1144.987793	162.669662	-137.672699	1122.305786	194.826431	-197.327255	1208.665283	49.009476	-156.004410	1422.461670	613.716614	-495.326263	1475.897095	473.378357	-412.727692	1443.202148	278.884460	-445.206604	1443.295532	68.439255	-367.680603	1400.398071	55.700287	-313.413208	1588.008423	38.329544	-352.820160
387	3.86000000	1515.625854	1362.463257	-108.657616	1467.202759	1338.219604	-521.713562	1395.774048	1426.731445	-305.408203	1539.482178	1307.081909	-315.129913	1392.768799	1057.355469	-8.261340	1287.786133	1039.952881	-549.460876	1418.388611	808.512238	-44.280702	1325.892578	811.554321	-471.496704	1465.258301	924.183411	-109.396912	1444.517212	917.119202	-455.020630	1284.312012	957.768005	-205.979248	1272.371460	958.994629	-313.962738	1278.341736	958.381317	-259.970993	1295.388184	1172.867676	-283.996643	1619.185059	1114.220215	-320.070923	1472.862061	608.622864	-70.819527	1454.029419	471.447968	-111.634071	1295.824585	324.416870	-71.130432	1156.690918	166.640549	-137.579224	1134.535522	199.599670	-197.038177	1216.147827	50.276196	-156.688736	1431.597900	614.407593	-497.074615	1479.830933	473.076691	-412.971497	1446.000244	278.658997	-445.228943	1443.683960	68.428177	-367.439178	1400.775513	55.678143	-313.260376	1588.177368	38.232071	-352.579529
388	3.87000000	1520.049438	1362.361816	-109.541565	1472.230591	1337.789795	-522.688110	1400.500366	1426.597412	-306.523010	1544.196777	1306.927734	-315.971222	1397.579712	1057.022339	-9.179723	1292.804688	1039.552246	-550.797913	1424.598816	808.252258	-44.747135	1331.085632	811.270355	-472.546906	1469.871704	924.007874	-110.052956	1449.587769	917.179565	-455.910217	1289.017944	957.239746	-206.970581	1277.131104	958.943481	-314.940918	1283.074524	958.091614	-260.955750	1300.116455	1172.741211	-285.067719	1623.899414	1114.055054	-320.671539	1484.508789	609.014404	-71.677315	1468.478027	471.792419	-112.193108	1310.319092	325.809814	-71.325691	1168.991333	170.232788	-137.562088	1147.063110	203.838303	-196.762222	1224.783447	51.566528	-157.513885	1440.353516	615.036377	-498.625916	1483.731567	472.765808	-413.224518	1448.789062	278.428345	-445.268707	1444.046387	68.418930	-367.228882	1401.142456	55.626686	-313.128754	1588.328003	38.160233	-352.383545
389	3.88000000	1524.399780	1362.239380	-110.327339	1477.255371	1337.360229	-523.572388	1405.182983	1426.442627	-307.558777	1548.870728	1306.754272	-316.711975	1402.288574	1056.650269	-10.079895	1297.876221	1039.121826	-552.054626	1430.652344	807.971924	-45.271760	1336.147705	810.902191	-473.598938	1474.349609	923.806274	-110.587990	1454.599609	917.226318	-456.776855	1293.652588	956.712280	-207.944977	1281.838989	958.882324	-315.889648	1287.745789	957.797302	-261.917313	1304.805054	1172.592163	-286.080841	1628.571533	1113.867676	-321.164124	1495.730103	609.589783	-72.534523	1482.845093	472.387207	-112.873581	1324.967651	327.159393	-71.658028	1181.866089	173.375946	-137.628662	1159.870239	207.463898	-196.521271	1234.694824	52.867382	-158.485352	1448.618774	615.614807	-499.964813	1487.551025	472.446350	-413.486389	1451.531372	278.193756	-445.322906	1444.376953	68.410408	-367.051025	1401.468872	55.566681	-313.018890	1588.459961	38.112633	-352.232452
390	3.89000000	1528.688721	1362.111816	-111.017502	1482.277954	1336.946899	-524.367249	1409.829834	1426.278320	-308.514801	1553.512573	1306.574219	-317.355682	1406.903809	1056.257812	-10.962413	1302.996948	1038.680786	-553.228088	1436.545166	807.689301	-45.860696	1341.083557	810.469330	-474.652786	1478.708008	923.590271	-111.012314	1459.559814	917.270752	-457.613922	1298.225708	956.203857	-208.898499	1286.500732	958.826416	-316.806366	1292.363220	957.515137	-262.852432	1309.463013	1172.431519	-287.034485	1633.210449	1113.671265	-321.554749	1506.529785	610.337830	-73.371391	1497.089478	473.241394	-113.655609	1339.698242	328.468842	-72.128174	1195.291138	176.007019	-137.785553	1172.949829	210.406906	-196.338226	1245.998901	54.179070	-159.598633	1456.325195	616.141907	-501.095581	1491.247681	472.118927	-413.754425	1454.193970	277.956207	-445.387421	1444.671997	68.401962	-366.904877	1401.736572	55.511421	-312.928802	1588.573730	38.087627	-352.124054
391	3.90000000	1532.927734	1361.992310	-111.614647	1487.300049	1336.563477	-525.074097	1414.448853	1426.114746	-309.390686	1558.130493	1306.398560	-317.906006	1411.433350	1055.861572	-11.826924	1308.161255	1038.246948	-554.316833	1442.274841	807.419342	-46.516325	1345.899170	809.991852	-475.707138	1482.965576	923.370789	-111.340569	1464.476440	917.323425	-458.414185	1302.748169	955.729858	-209.826706	1291.122314	958.789185	-317.688538	1296.935242	957.259521	-263.757622	1314.098511	1172.268677	-287.928009	1637.824951	1113.477539	-321.850128	1516.933105	611.247253	-74.173752	1511.170654	474.357788	-114.518173	1354.448242	329.735474	-72.733505	1209.242920	178.072281	-138.038315	1186.306274	212.608276	-196.235886	1258.796265	55.509720	-160.839127	1463.419922	616.603821	-502.034943	1494.787476	471.784119	-414.024231	1456.748047	277.716614	-445.457367	1444.929688	68.393417	-366.787933	1401.937622	55.468143	-312.855194	1588.671021	38.083248	-352.054169
392	3.91000000	1537.128296	1361.891235	-112.121414	1492.323120	1336.221313	-525.694702	1419.047974	1425.960571	-310.186157	1562.732666	1306.236938	-318.366791	1415.884766	1055.475098	-12.672162	1313.361816	1037.837280	-555.321106	1447.840820	807.173431	-47.237490	1350.601624	809.489899	-476.759583	1487.143799	923.157654	-111.590729	1469.357788	917.393555	-459.170258	1307.231445	955.302429	-210.724884	1295.710449	958.781799	-318.533813	1301.470947	957.042114	-264.629349	1318.719482	1172.112305	-288.761536	1642.423706	1113.296753	-322.057312	1526.980591	612.308350	-74.933182	1525.049316	475.732513	-115.440208	1369.166260	330.950256	-73.467789	1223.699341	179.528427	-138.390961	1199.953003	214.020493	-196.236282	1273.158569	56.867699	-162.183441	1469.850830	616.978760	-502.806396	1498.145386	471.442566	-414.290039	1459.169922	277.476105	-445.527710	1445.150513	68.385040	-366.696625	1402.072754	55.439892	-312.794159	1588.753906	38.096889	-352.017059
393	3.92000000	1541.301270	1361.815674	-112.540504	1497.349487	1335.928955	-526.231140	1423.634399	1425.822510	-310.901184	1567.326538	1306.096802	-318.741943	1420.265259	1055.109009	-13.495988	1318.589722	1037.466675	-556.242554	1453.244019	806.959198	-48.019802	1355.199036	808.982849	-477.806671	1491.264648	922.959900	-111.782822	1474.212280	917.488403	-459.875549	1311.687134	954.930664	-211.588455	1300.272339	958.812744	-319.340210	1305.979736	956.871704	-265.464333	1323.333374	1171.968872	-289.535858	1647.014893	1113.137085	-322.183502	1536.721436	613.513000	-75.646736	1538.688354	477.354980	-116.401535	1383.812134	332.098358	-74.321327	1238.640503	180.343155	-138.845688	1213.911743	214.608429	-196.360214	1289.114258	58.254719	-163.600922	1475.562256	617.244202	-503.435638	1501.304932	471.095184	-414.545532	1461.441528	277.236237	-445.593353	1445.336060	68.377419	-366.626770	1402.149536	55.427456	-312.742065	1588.824829	38.124893	-352.005768
394	3.93000000	1545.457275	1361.769531	-112.874672	1502.381226	1335.692505	-526.685669	1428.215332	1425.705933	-311.535889	1571.919312	1305.983398	-319.035400	1424.582520	1054.771240	-14.295483	1323.835449	1037.148193	-557.084045	1458.487366	806.780731	-48.856043	1359.700134	808.489044	-478.844177	1495.350952	922.784912	-111.937630	1479.048218	917.612610	-460.524750	1316.125977	954.620422	-212.413208	1304.815552	958.887756	-320.106201	1310.470764	956.754089	-266.259705	1327.947021	1171.843628	-290.252289	1651.605835	1113.004761	-322.235718	1546.208862	614.854614	-76.316109	1552.052856	479.207916	-117.383476	1398.358398	333.159393	-75.281166	1254.050415	180.495300	-139.402756	1228.210938	214.349670	-196.626495	1306.638916	59.660503	-165.055801	1480.503052	617.383606	-503.946045	1504.257690	470.743103	-414.784058	1463.550659	276.999207	-445.649567	1445.489624	68.371330	-366.574005	1402.179810	55.430981	-312.695862	1588.885742	38.162239	-352.012024
395	3.94000000	1549.606567	1361.754028	-113.126724	1507.421021	1335.515381	-527.060730	1432.797729	1425.614136	-312.090485	1576.517456	1305.900024	-319.251007	1428.843994	1054.466064	-15.067083	1329.089111	1036.892456	-557.849670	1463.575256	806.638672	-49.736669	1364.114197	808.025085	-479.867416	1499.424316	922.638367	-112.075279	1483.873169	917.768188	-461.114349	1320.558350	954.374146	-213.195755	1309.347900	959.009705	-320.830933	1314.953125	956.691925	-267.013344	1332.566284	1171.739990	-290.912598	1656.203369	1112.903931	-322.220764	1555.495850	616.327148	-76.946480	1565.110474	481.268097	-118.369370	1412.788696	334.107635	-76.331306	1269.917236	179.974319	-140.060760	1242.883057	213.234879	-197.050705	1325.650513	61.059643	-166.510040	1484.641846	617.390930	-504.355103	1507.002563	470.387848	-414.999237	1465.490723	276.767944	-445.692108	1445.615356	68.367653	-366.534058	1402.177734	55.450939	-312.653351	1588.937988	38.202473	-352.026794
